<?xml version="1.0" encoding="UTF-8" standalone="no"?>
<!DOCTYPE svg PUBLIC "-//W3C//DTD SVG 1.1//EN" "http://www.w3.org/Graphics/SVG/1.1/DTD/svg11.dtd">
<svg width="100%" height="100%" viewBox="0 0 1182 1182" version="1.1" xmlns="http://www.w3.org/2000/svg" xmlns:xlink="http://www.w3.org/1999/xlink" xml:space="preserve" xmlns:serif="http://www.serif.com/" style="fill-rule:evenodd;clip-rule:evenodd;stroke-linejoin:round;stroke-miterlimit:2;">
    <g transform="matrix(1,0,0,1,-1417,0)">
        <g id="Artboard3" transform="matrix(1,0,0,1,-0.322835,0)">
            <rect x="1417.323" y="0" width="1181.102" height="1181.102" style="fill:none;"/>
            <g transform="matrix(1,0,0,1,-1012.597188,1409.665018)">
                <g transform="matrix(10.623125,0,0,10.623125,3246.796883,-1235.880278)">
                    <path d="M0,78.464C-3.633,78.464 -7.262,77.789 -10.651,76.494C-14.043,77.789 -17.671,78.464 -21.305,78.464C-24.937,78.464 -28.565,77.789 -31.957,76.494C-35.347,77.789 -38.976,78.464 -42.609,78.464C-59.051,78.464 -72.429,65.087 -72.429,48.644C-72.429,38.159 -66.834,28.423 -57.952,23.076C-53.326,9.352 -40.481,0 -25.758,0C-12.568,0 -0.741,7.576 4.865,19.232C18.968,21.581 29.819,33.966 29.819,48.644C29.819,65.087 16.442,78.464 0,78.464" style="fill:rgb(77,71,83);fill-rule:nonzero;"/>
                </g>
                <g transform="matrix(10.623125,0,0,10.623125,3251.309586,-670.14363)">
                    <path d="M0,-28.046C-3.669,-38.991 -14.001,-46.881 -26.183,-46.881C-39.171,-46.881 -50.059,-37.913 -53.007,-25.832C-60.967,-22.085 -66.479,-13.993 -66.479,-4.611C-66.479,8.338 -55.983,18.835 -43.034,18.835C-39.197,18.835 -35.579,17.907 -32.382,16.273C-29.184,17.907 -25.566,18.835 -21.729,18.835C-17.892,18.835 -14.274,17.907 -11.076,16.273C-7.88,17.907 -4.261,18.835 -0.425,18.835C12.524,18.835 23.021,8.338 23.021,-4.611C23.021,-17.418 12.753,-27.818 0,-28.046" style="fill:rgb(62,180,230);fill-rule:nonzero;"/>
                </g>
                <g transform="matrix(10.623125,0,0,10.623125,-1080.165537,-2565.065865)">
                    <clipPath id="_clip1">
                        <path d="M354.733,152.545C346.774,156.293 341.261,164.385 341.261,173.766C341.261,186.715 351.757,197.212 364.706,197.212C368.543,197.212 372.161,196.284 375.358,194.65C378.556,196.284 382.174,197.212 386.011,197.212C389.848,197.212 393.466,196.284 396.664,194.65C399.86,196.284 403.48,197.212 407.316,197.212C420.265,197.212 430.762,186.715 430.762,173.766C430.762,160.959 420.493,150.559 407.741,150.331C404.071,139.386 393.739,131.496 381.558,131.496C368.569,131.496 357.682,140.464 354.733,152.545Z" clip-rule="nonzero"/>
                    </clipPath>
                    <g clip-path="url(#_clip1)">
                        <g transform="matrix(1,0,0,1,429.3584,166.5106)">
                            <path d="M0,11.943C0,9.836 -1.708,8.129 -3.814,8.129C-5.922,8.129 -7.629,9.836 -7.629,11.943C-7.629,13.361 -6.847,14.584 -5.698,15.241L-5.698,44.801L-1.931,44.801L-1.931,15.241C-0.783,14.584 0,13.361 0,11.943M-15.542,8.129C-17.649,8.129 -19.357,9.836 -19.357,11.943C-19.357,13.361 -18.574,14.584 -17.427,15.241L-17.427,44.801L-13.659,44.801L-13.659,15.241C-12.511,14.584 -11.729,13.361 -11.729,11.943C-11.729,9.836 -13.436,8.129 -15.542,8.129M-27.27,8.129C-29.377,8.129 -31.085,9.836 -31.085,11.943C-31.085,13.361 -30.303,14.584 -29.154,15.241L-29.154,44.801L-25.387,44.801L-25.387,15.241C-24.238,14.584 -23.456,13.361 -23.456,11.943C-23.456,9.836 -25.164,8.129 -27.27,8.129M-32.026,-3.298L-32.026,-32.858L-35.794,-32.858L-35.794,-3.298C-36.942,-2.641 -37.725,-1.418 -37.725,-0C-37.725,2.107 -36.018,3.815 -33.911,3.815C-31.804,3.815 -30.096,2.107 -30.096,-0C-30.096,-1.418 -30.879,-2.64 -32.026,-3.298M-20.299,-3.298L-20.299,-32.858L-24.066,-32.858L-24.066,-3.298C-25.215,-2.641 -25.997,-1.418 -25.997,-0C-25.997,2.107 -24.289,3.815 -22.184,3.815C-20.076,3.815 -18.368,2.107 -18.368,-0C-18.368,-1.418 -19.15,-2.64 -20.299,-3.298M-6.641,-0C-6.641,2.107 -8.348,3.815 -10.455,3.815C-12.562,3.815 -14.27,2.107 -14.27,-0C-14.27,-1.418 -13.486,-2.641 -12.339,-3.298L-12.339,-32.858L-8.571,-32.858L-8.571,-3.298C-7.423,-2.64 -6.641,-1.418 -6.641,-0" style="fill:white;fill-rule:nonzero;"/>
                        </g>
                        <g transform="matrix(1,0,0,1,381.5576,197.2116)">
                            <path d="M0,-65.716C-12.988,-65.716 -23.876,-56.747 -26.824,-44.667C-34.784,-40.919 -40.297,-32.827 -40.297,-23.445C-40.297,-10.496 -29.801,0 -16.852,0C-13.015,0 -9.396,-0.927 -6.199,-2.562C-5.219,-2.06 -4.194,-1.634 -3.141,-1.273L19.317,-57.817C14.339,-62.699 7.525,-65.716 0,-65.716" style="fill:rgb(230,231,232);fill-rule:nonzero;"/>
                        </g>
                        <g opacity="0.4">
                            <g transform="matrix(1,0,0,1,440.5693,189.6795)">
                                <path d="M0,-41.076L-13.423,-54.5L-91.193,23.268L-77.768,36.692L0,-41.076ZM-96.825,19.364L-116.189,0L-38.42,-77.768L-19.058,-58.405L-96.825,19.364Z" style="fill:white;fill-rule:nonzero;"/>
                            </g>
                        </g>
                    </g>
                </g>
            </g>
        </g>
    </g>
</svg>
