<?xml version="1.0" encoding="UTF-8" standalone="no"?>
<!DOCTYPE svg PUBLIC "-//W3C//DTD SVG 1.1//EN" "http://www.w3.org/Graphics/SVG/1.1/DTD/svg11.dtd">
<svg width="100%" height="100%" viewBox="0 0 1182 1182" version="1.1" xmlns="http://www.w3.org/2000/svg" xmlns:xlink="http://www.w3.org/1999/xlink" xml:space="preserve" xmlns:serif="http://www.serif.com/" style="fill-rule:evenodd;clip-rule:evenodd;stroke-linejoin:round;stroke-miterlimit:2;">
    <g id="Artboard2" transform="matrix(1,0,0,1,0,1417.322835)">
        <rect x="0" y="-1417.323" width="1181.102" height="1181.102" style="fill:none;"/>
        <g transform="matrix(1,0,0,1,-7.207664,-33.621108)">
            <g transform="matrix(10.623125,0,0,10.623125,-1990.217129,-2562.047462)">
                <clipPath id="_clip1">
                    <path d="M206.881,166.582C206.881,186.934 223.38,203.433 243.733,203.433C264.086,203.433 280.585,186.934 280.585,166.582C280.585,146.229 264.086,129.729 243.733,129.729C223.38,129.729 206.881,146.229 206.881,166.582Z" clip-rule="nonzero"/>
                </clipPath>
                <g clip-path="url(#_clip1)">
                    <g transform="matrix(1,0,0,1,220.3291,198.0463)">
                        <path d="M0,-70.036L13.901,-57.749L13.901,-48.035C15.456,-47.713 16.625,-46.337 16.625,-44.688C16.625,-42.8 15.094,-41.27 13.207,-41.27C11.319,-41.27 9.789,-42.8 9.789,-44.688C9.789,-46.337 10.958,-47.713 12.512,-48.035L12.512,-57.121L-1.415,-69.432L-8.811,-49.972L-13.077,-42.682L-4.1,-32.751L8.702,-32.751C9.022,-34.306 10.4,-35.475 12.048,-35.475C13.936,-35.475 15.467,-33.944 15.467,-32.056C15.467,-30.168 13.936,-28.639 12.048,-28.639C10.4,-28.639 9.022,-29.807 8.702,-31.361L-4.717,-31.361L-13.814,-41.422L-15.998,-37.689L-18.545,-24.709L-12.814,-10.108L-6.476,-17.803L6.442,-17.803C6.763,-19.357 8.14,-20.525 9.789,-20.525C11.676,-20.525 13.207,-18.994 13.207,-17.107C13.207,-15.22 11.676,-13.689 9.789,-13.689C8.14,-13.689 6.763,-14.857 6.442,-16.412L-5.818,-16.412L-12.122,-8.761L-4.755,-0.837L11.353,9.477L11.353,1.073C9.799,0.752 8.63,-0.624 8.63,-2.274C8.63,-4.161 10.161,-5.692 12.048,-5.692C13.936,-5.692 15.467,-4.161 15.467,-2.274C15.467,-0.624 14.297,0.752 12.744,1.073L12.744,10.368L14.248,11.331L23.404,11.331L23.404,-81.367L0,-70.036Z" style="fill:rgb(77,71,83);fill-rule:nonzero;"/>
                    </g>
                    <g transform="matrix(1,0,0,1,258.9727,148.536)">
                        <path d="M0,28.985C1.649,28.985 3.026,30.153 3.346,31.708L16.264,31.708L22.604,39.402L28.334,24.801L25.787,11.821L23.603,8.088L14.505,18.149L1.086,18.149C0.766,19.703 -0.611,20.872 -2.259,20.872C-4.147,20.872 -5.679,19.342 -5.679,17.454C-5.679,15.566 -4.147,14.035 -2.259,14.035C-0.611,14.035 0.766,15.204 1.086,16.759L13.89,16.759L22.865,6.829L18.6,-0.462L11.204,-19.921L-2.723,-7.611L-2.723,1.475C-1.168,1.797 0,3.173 0,4.822C0,6.71 -1.53,8.24 -3.418,8.24C-5.306,8.24 -6.836,6.71 -6.836,4.822C-6.836,3.173 -5.668,1.797 -4.113,1.475L-4.113,-8.239L9.789,-20.526L-13.616,-31.856L-13.616,60.841L-4.46,60.841L-2.954,59.878L-2.954,50.583C-4.509,50.262 -5.679,48.886 -5.679,47.236C-5.679,45.349 -4.147,43.818 -2.259,43.818C-0.371,43.818 1.159,45.349 1.159,47.236C1.159,48.886 -0.01,50.262 -1.563,50.583L-1.563,58.987L14.545,48.673L21.911,40.75L15.607,33.098L3.346,33.098C3.026,34.653 1.649,35.821 0,35.821C-1.888,35.821 -3.418,34.291 -3.418,32.403C-3.418,30.516 -1.888,28.985 0,28.985" style="fill:rgb(62,180,230);fill-rule:nonzero;"/>
                    </g>
                    <g opacity="0.4">
                        <g transform="matrix(1,0,0,1,298.085,187.0526)">
                            <path d="M0,-41.078L-13.425,-54.502L-91.193,23.266L-77.769,36.691L0,-41.078ZM-96.827,19.362L-116.189,-0.001L-38.42,-77.769L-19.058,-58.407L-96.827,19.362Z" style="fill:white;fill-rule:nonzero;"/>
                        </g>
                    </g>
                </g>
            </g>
            <g transform="matrix(10.623125,0,0,10.623125,597.758845,-356.423253)">
                <path d="M0,-82.222C-22.668,-82.222 -41.11,-63.78 -41.11,-41.111C-41.11,-18.443 -22.668,-0.001 0,-0.001C22.669,-0.001 41.11,-18.443 41.11,-41.111C41.11,-63.78 22.669,-82.222 0,-82.222M0,4.521C-25.161,4.521 -45.632,-15.95 -45.632,-41.111C-45.632,-66.273 -25.161,-86.743 0,-86.743C25.161,-86.743 45.632,-66.273 45.632,-41.111C45.632,-15.95 25.161,4.521 0,4.521" style="fill:rgb(62,180,230);fill-rule:nonzero;"/>
            </g>
        </g>
    </g>
</svg>
