<?xml version="1.0" encoding="UTF-8" standalone="no"?>
<!DOCTYPE svg PUBLIC "-//W3C//DTD SVG 1.1//EN" "http://www.w3.org/Graphics/SVG/1.1/DTD/svg11.dtd">
<svg width="100%" height="100%" viewBox="0 0 1182 1182" version="1.1" xmlns="http://www.w3.org/2000/svg" xmlns:xlink="http://www.w3.org/1999/xlink" xml:space="preserve" xmlns:serif="http://www.serif.com/" style="fill-rule:evenodd;clip-rule:evenodd;stroke-linejoin:round;stroke-miterlimit:2;">
    <g transform="matrix(1,0,0,1,0,-1418)">
        <g id="Artboard1" transform="matrix(1,0,0,1,0,1418)">
            <rect x="0" y="0" width="1181.102" height="1181.102" style="fill:none;"/>
            <g transform="matrix(1,0,0,1,-0,-39.166906)">
                <g transform="matrix(10.623125,0,0,10.623125,-492.383994,-3521.608488)">
                    <g transform="matrix(-1,0,0,1,203.881,280.34)">
                        <rect x="100.245" y="76.671" width="3.391" height="66.318" style="fill:rgb(230,231,232);"/>
                    </g>
                    <g opacity="0.1">
                        <g transform="matrix(0,-1,-1,0,101.7514,338.8779)">
                            <path d="M-18.086,-18.087C-28.074,-18.087 -36.173,-9.991 -36.173,-0.001C-36.173,9.989 -28.074,18.086 -18.086,18.086C-8.098,18.086 -0,9.989 -0,-0.001C-0,-9.991 -8.098,-18.087 -18.086,-18.087" style="fill:rgb(62,180,230);fill-rule:nonzero;"/>
                        </g>
                    </g>
                    <g opacity="0.4">
                        <g transform="matrix(0,-1,-1,0,101.7516,347.0734)">
                            <path d="M-9.89,-9.891C-15.353,-9.891 -19.782,-5.463 -19.782,-0C-19.782,5.463 -15.353,9.89 -9.89,9.89C-4.428,9.89 0.001,5.463 0.001,-0C0.001,-5.463 -4.428,-9.891 -9.89,-9.891" style="fill:rgb(62,180,230);fill-rule:nonzero;"/>
                        </g>
                    </g>
                    <g transform="matrix(0,-1,-1,0,101.7516,351.5949)">
                        <path d="M-5.369,-5.37C-8.335,-5.37 -10.739,-2.967 -10.739,0C-10.739,2.964 -8.335,5.369 -5.369,5.369C-2.404,5.369 0,2.964 0,0C0,-2.967 -2.404,-5.37 -5.369,-5.37" style="fill:rgb(62,180,230);fill-rule:nonzero;"/>
                    </g>
                    <g transform="matrix(0,-1,-1,0,101.9413,379.3822)">
                        <path d="M-31.652,-31.652C-49.133,-31.652 -63.304,-17.481 -63.304,0C-63.304,17.481 -49.133,31.652 -31.652,31.652C-14.171,31.652 0,17.481 0,0C0,-17.481 -14.171,-31.652 -31.652,-31.652" style="fill:rgb(77,71,83);fill-rule:nonzero;"/>
                    </g>
                    <g transform="matrix(0,-1,-1,0,101.9408,388.5907)">
                        <path d="M-22.444,-22.444C-34.84,-22.444 -44.888,-12.395 -44.888,-0C-44.888,12.395 -34.84,22.444 -22.444,22.444C-10.047,22.444 -0.001,12.395 -0.001,-0C-0.001,-12.395 -10.047,-22.444 -22.444,-22.444" style="fill:rgb(230,231,232);fill-rule:nonzero;"/>
                    </g>
                    <g transform="matrix(0,-1,-1,0,101.9403,397.6542)">
                        <path d="M-13.38,-13.381C-20.771,-13.381 -26.761,-7.39 -26.761,-0.001C-26.761,7.389 -20.771,13.38 -13.38,13.38C-5.989,13.38 0,7.389 0,-0.001C0,-7.39 -5.989,-13.381 -13.38,-13.381" style="fill:rgb(62,180,230);fill-rule:nonzero;"/>
                    </g>
                    <g transform="matrix(0,-1,-1,0,101.9413,379.3822)">
                        <path d="M-31.652,-31.652C-49.133,-31.652 -63.304,-17.481 -63.304,0C-63.304,17.481 -49.133,31.652 -31.652,31.652C-14.171,31.652 0,17.481 0,0C0,-17.481 -14.171,-31.652 -31.652,-31.652" style="fill:rgb(77,71,83);fill-rule:nonzero;"/>
                    </g>
                    <g transform="matrix(0,-1,-1,0,101.9408,388.5907)">
                        <path d="M-22.444,-22.444C-34.84,-22.444 -44.888,-12.395 -44.888,-0C-44.888,12.395 -34.84,22.444 -22.444,22.444C-10.047,22.444 -0.001,12.395 -0.001,-0C-0.001,-12.395 -10.047,-22.444 -22.444,-22.444" style="fill:rgb(230,231,232);fill-rule:nonzero;"/>
                    </g>
                    <g transform="matrix(0,-1,-1,0,101.9403,397.6542)">
                        <path d="M-13.38,-13.381C-20.771,-13.381 -26.761,-7.39 -26.761,-0.001C-26.761,7.389 -20.771,13.38 -13.38,13.38C-5.989,13.38 0,7.389 0,-0.001C0,-7.39 -5.989,-13.381 -13.38,-13.381" style="fill:rgb(62,180,230);fill-rule:nonzero;"/>
                    </g>
                    <g transform="matrix(0,-1,-1,0,98.6907,402.4578)">
                        <path d="M-5.468,-5.468C-8.489,-5.468 -10.936,-3.021 -10.936,0C-10.936,3.019 -8.489,5.468 -5.468,5.468C-2.447,5.468 0,3.019 0,0C0,-3.021 -2.447,-5.468 -5.468,-5.468" style="fill:white;fill-rule:nonzero;"/>
                    </g>
                    <g opacity="0.2">
                        <g transform="matrix(1,0,0,1,118.5435,422.2949)">
                            <path d="M0,-38.209C-0.305,-38.396 -0.616,-38.576 -0.927,-38.754C-0.956,-38.719 -0.986,-38.686 -1.013,-38.649L-2.237,-39.462C-6.549,-41.663 -11.429,-42.913 -16.603,-42.913C-19.698,-42.913 -22.686,-42.46 -25.515,-41.632L-47.176,-19.456C-47.876,-16.841 -48.254,-14.095 -48.254,-11.261C-48.254,-5.437 -46.674,0.016 -43.93,4.704L0,-38.209Z" style="fill:white;fill-rule:nonzero;"/>
                        </g>
                    </g>
                    <g opacity="0.2">
                        <g transform="matrix(0.698934,-0.715186,-0.715186,-0.698934,111.95952,442.67516)">
                            <path d="M-14.345,19.086L45.589,19.086C47.029,23.329 47.547,27.816 47.136,32.238L-15.817,32.883C-16.344,28.258 -15.856,23.539 -14.345,19.086" style="fill:white;fill-rule:nonzero;"/>
                        </g>
                    </g>
                </g>
            </g>
        </g>
    </g>
</svg>
